<svg xmlns="http://www.w3.org/2000/svg" xmlns:xlink="http://www.w3.org/1999/xlink" width="48" height="48" viewBox="0 0 48 48"><defs><linearGradient id="b" x1="868.253" x2="937.656" y1="521.354" y2="588.736" gradientTransform="matrix(1.53785 0 0 1.53785 -1326.968 211.343)" gradientUnits="userSpaceOnUse" xlink:href="#a"/><linearGradient id="a"><stop offset="0" stop-color="#24f3d2"/><stop offset=".394" stop-color="#0674f0"/><stop offset=".507" stop-color="#6961b5"/><stop offset=".813" stop-color="#f34660"/><stop offset="1" stop-color="#ee078d"/></linearGradient></defs><g transform="translate(0 -1004.362)"><rect width="48" height="48" y="1004.362" fill="url(#b)" rx="10.144" ry="10.144"/><path fill="#fff" style="line-height:normal;text-indent:0;text-align:start;text-decoration-line:none;text-decoration-style:solid;text-decoration-color:#000;text-transform:none;block-progression:tb;isolation:auto;mix-blend-mode:normal" d="m 9.5,1013.3622 c -0.82235,0 -1.5,0.6776 -1.5,1.5 0,0.8224 0.67765,1.5 1.5,1.5 l 0.5,0 0,17 -0.5,0 c -0.8222,0 -1.5,0.6778 -1.5,1.5 0,0.8222 0.67786,1.498 1.5,1.498 l 12.5,0 0,4.002 -3.5,0 c -0.82232,0 -1.5,0.6777 -1.5,1.5 0,0.8223 0.67768,1.5 1.5,1.5 l 10,0 c 0.82233,0 1.5,-0.6777 1.5,-1.5 0,-0.8223 -0.67767,-1.5 -1.5,-1.5 l -3.5,0 0,-4.002 13.5,0 c 0.82215,0 1.5,-0.6758 1.5,-1.498 0,-0.8222 -0.67779,-1.5 -1.5,-1.5 l -0.5,0 0,-17 0.5,0 c 0.82236,0 1.5,-0.6776 1.5,-1.5 0,-0.8224 -0.67764,-1.5 -1.5,-1.5 l -29,0 z m 0,1 29,0 c 0.28567,0 0.5,0.2142 0.5,0.5 0,0.2856 -0.21433,0.5 -0.5,0.5 l -1.005859,0 -0.002,0 -26.998,0 -0.002,0 -0.992188,0 c -0.28566,0 -0.5,-0.2144 -0.5,-0.5 0,-0.2858 0.21434,-0.5 0.5,-0.5 z m 1.5,2 26,0 0,17 -26,0 0,-17 z m 10.5,2 a 0.50004991,0.50004991 0 0 0 -0.5,0.5 l 0,11 a 0.50004991,0.50004991 0 0 0 0.5,0.5 l 2,0 a 0.50004991,0.50004991 0 0 0 0.5,-0.5 l 0,-11 a 0.50004991,0.50004991 0 0 0 -0.5,-0.5 l -2,0 z m 7.949219,0 a 0.50064426,0.50064426 0 1 0 0.05078,1 l 3,0 a 0.50005,0.50005 0 1 0 0,-1 l -3,0 a 0.50005,0.50005 0 0 0 -0.05078,0 z m -7.449219,1 1,0 0,10 -1,0 0,-10 z m -4.5,1 a 0.50004988,0.50004988 0 0 0 -0.5,0.5 l 0,9 a 0.50004988,0.50004988 0 0 0 0.5,0.5 l 2,0 a 0.50004988,0.50004988 0 0 0 0.5,-0.5 l 0,-9 a 0.50004988,0.50004988 0 0 0 -0.5,-0.5 l -2,0 z m 8.941406,0 a 0.50064429,0.50064429 0 0 0 0.05078,1 l 9,0 a 0.50005,0.50005 0 1 0 0,-1 l -9,0 a 0.50005,0.50005 0 0 0 -0.05078,0 z m -8.441406,1 1,0 0,8 -1,0 0,-8 z m -4.5,1 a 0.50004994,0.50004994 0 0 0 -0.5,0.5 l 0,7 a 0.50004994,0.50004994 0 0 0 0.5,0.5 l 2,0 a 0.50004994,0.50004994 0 0 0 0.5,-0.5 l 0,-7 a 0.50004994,0.50004994 0 0 0 -0.5,-0.5 l -2,0 z m 12.941406,0 a 0.50064429,0.50064429 0 0 0 0.05078,1 l 9,0 a 0.50005,0.50005 0 1 0 0,-1 l -9,0 a 0.50005,0.50005 0 0 0 -0.05078,0 z m -12.441406,1 1,0 0,6 -1,0 0,-6 z m 12.441406,1 a 0.50064429,0.50064429 0 0 0 0.05078,1 l 9,0 a 0.50005,0.50005 0 1 0 0,-1 l -9,0 a 0.50005,0.50005 0 0 0 -0.05078,0 z m 0,2 a 0.50064429,0.50064429 0 0 0 0.05078,1 l 9,0 a 0.50005,0.50005 0 1 0 0,-1 l -9,0 a 0.50005,0.50005 0 0 0 -0.05078,0 z m -13.984375,5 a 0.50064427,0.50064427 0 0 0 0.05078,1 l 11.992188,0 a 0.50005,0.50005 0 1 0 0,-1 l -11.992187,0 a 0.50005,0.50005 0 0 0 -0.05078,0 z m -2.957031,3 0.919922,0 a 0.50004997,0.50004997 0 0 0 0.162109,0 l 26.837891,0 a 0.50004997,0.50004997 0 0 0 0.162109,0 l 0.917969,0 c 0.28548,0 0.5,0.2146 0.5,0.5 0,0.2856 -0.21446,0.498 -0.5,0.498 l -29,0 c -0.28553,0 -0.5,-0.2124 -0.5,-0.498 0,-0.2854 0.21453,-0.5 0.5,-0.5 z m 13.5,2 1,0 0,4 -1,0 0,-4 z m -4.5,5 10,0 c 0.28559,0 0.5,0.2145 0.5,0.5 0,0.2857 -0.21441,0.5 -0.5,0.5 l -10,0 c -0.28557,0 -0.5,-0.2143 -0.5,-0.5 0,-0.2855 0.21443,-0.5 0.5,-0.5 z" color="#000" font-family="sans-serif" font-weight="400" overflow="visible" white-space="normal"/></g></svg>